# Blender 4.2.10 LTS
# www.blender.org
o Cube
v -0.636807 -5.133333 -0.135836
v -0.636807 -5.133333 1.367043
v -1.910422 -5.133333 -0.135836
v -1.910422 -3.133333 1.367043
v -1.910422 -5.133333 1.367043
v -0.636807 -2.133333 1.367043
v -1.910422 -3.133333 -0.135836
v -1.910422 -1.133333 1.367043
v -0.636807 2.866667 1.367043
v -1.910422 2.866667 -0.135836
v -1.910422 2.866667 1.367043
v -0.636807 -2.133333 -0.135836
v 0.636808 0.866667 1.367043
v -0.636807 2.866667 -0.135836
v -0.636807 0.866667 -0.135836
v 1.910422 -3.133333 1.367043
v 0.636808 -1.133333 -0.135836
v 0.636808 -2.133333 -0.135836
v 0.636808 -2.133333 1.367043
v 1.910422 2.866667 -0.135836
v 1.910422 2.866667 1.367043
v 0.636808 2.866667 -0.135836
v 0.636808 2.866667 1.367043
v 1.910422 -3.133333 -0.135836
v 1.910422 -5.133333 -0.135836
v 1.910422 -5.133333 1.367043
v 0.636808 -5.133333 -0.135836
v 0.636808 -5.133333 1.367043
v -0.636807 0.866667 1.367043
v -0.636807 -1.133333 1.367043
v -1.910422 0.866667 -0.135836
v -1.910422 0.866667 1.367043
v -0.636807 -1.133333 -0.135836
v 1.910422 0.866667 1.367043
v 1.910422 -1.133333 1.367043
v 0.636808 -1.133333 1.367043
v -1.910422 2.866667 -1.638714
v -1.910422 0.866667 -1.638714
v 0.636808 2.866667 -1.638714
v 0.636808 0.866667 -0.135836
v -0.636807 2.866667 -1.638714
v -0.636807 0.866667 -1.638714
v 1.910422 2.866667 -1.638714
v -1.910422 -1.133333 -1.638714
v -1.910422 -1.133333 -0.135836
v 0.636808 -1.133333 -1.638714
v -0.636807 -1.133333 -1.638714
v 1.910422 0.866667 -1.638714
v 1.910422 -1.133333 -1.638714
v 1.910422 0.866667 -0.135836
v 1.910422 -1.133333 -0.135836
v 0.636808 0.866667 -1.638714
v -0.871378 2.866667 1.600000
v -0.871378 2.866667 -0.400000
v 0.871378 2.866667 -0.400000
v 0.871378 2.866667 1.600000
v 0.871378 4.866667 -0.400000
v 0.871378 4.866667 1.600000
v -0.871378 4.866667 -0.400000
v -0.871378 4.866667 1.600000
vn -0.6176 0.7865 -0.0000
vn -0.0000 -0.0000 1.0000
vn -1.0000 -0.0000 -0.0000
vn -0.0000 -1.0000 -0.0000
vn 1.0000 -0.0000 -0.0000
vn -0.0000 -0.0000 -1.0000
vn -0.0000 1.0000 -0.0000
vn -0.6176 -0.7865 -0.0000
vt 0.625000 0.500000
vt 0.875000 0.500000
vt 0.875000 0.750000
vt 0.625000 0.750000
vt 0.375000 0.750000
vt 0.625000 1.000000
vt 0.375000 1.000000
vt 0.375000 0.000000
vt 0.625000 0.000000
vt 0.625000 0.250000
vt 0.375000 0.250000
vt 0.125000 0.500000
vt 0.375000 0.500000
vt 0.125000 0.750000
s 0
f 12/1/1 7/2/1 4/3/1 6/4/1
f 2/5/2 6/4/2 4/6/2 5/7/2
f 5/8/3 4/9/3 7/10/3 3/11/3
f 3/12/4 1/13/4 2/5/4 5/14/4
f 1/13/5 12/1/5 6/4/5 2/5/5
f 3/11/6 7/10/6 12/1/6 1/13/6
f 33/1/7 45/2/7 8/3/7 30/4/7
f 6/5/2 30/4/2 8/6/2 4/7/2
f 4/8/3 8/9/3 45/10/3 7/11/3
f 12/13/5 33/1/5 30/4/5 6/5/5
f 7/11/6 45/10/6 33/1/6 12/13/6
f 14/1/7 10/2/7 11/3/7 9/4/7
f 29/5/2 9/4/2 11/6/2 32/7/2
f 32/8/3 11/9/3 10/10/3 31/11/3
f 31/12/4 15/13/4 29/5/4 32/14/4
f 15/13/5 14/1/5 9/4/5 29/5/5
f 31/11/6 10/10/6 14/1/6 15/13/6
f 17/1/7 33/2/7 30/3/7 36/4/7
f 19/5/2 36/4/2 30/6/2 6/7/2
f 12/12/4 18/13/4 19/5/4 6/14/4
f 18/13/5 17/1/5 36/4/5 19/5/5
f 12/11/6 33/10/6 17/1/6 18/13/6
f 22/1/7 14/2/7 9/3/7 23/4/7
f 13/5/2 23/4/2 9/6/2 29/7/2
f 15/12/4 40/13/4 13/5/4 29/14/4
f 40/13/5 22/1/5 23/4/5 13/5/5
f 15/11/6 14/10/6 22/1/6 40/13/6
f 51/1/7 17/2/7 36/3/7 35/4/7
f 16/5/2 35/4/2 36/6/2 19/7/2
f 18/12/8 24/13/8 16/5/8 19/14/8
f 24/13/5 51/1/5 35/4/5 16/5/5
f 18/11/6 17/10/6 51/1/6 24/13/6
f 20/1/7 22/2/7 23/3/7 21/4/7
f 34/5/2 21/4/2 23/6/2 13/7/2
f 40/12/4 50/13/4 34/5/4 13/14/4
f 50/13/5 20/1/5 21/4/5 34/5/5
f 40/11/6 22/10/6 20/1/6 50/13/6
f 26/5/2 16/4/2 19/6/2 28/7/2
f 28/8/3 19/9/3 18/10/3 27/11/3
f 27/12/4 25/13/4 26/5/4 28/14/4
f 25/13/5 24/1/5 16/4/5 26/5/5
f 27/11/6 18/10/6 24/1/6 25/13/6
f 30/5/2 29/4/2 32/6/2 8/7/2
f 8/8/3 32/9/3 31/10/3 45/11/3
f 33/13/5 15/1/5 29/4/5 30/5/5
f 45/11/6 31/10/6 15/1/6 33/13/6
f 36/5/2 13/4/2 29/6/2 30/7/2
f 17/13/5 40/1/5 13/4/5 36/5/5
f 33/11/6 15/10/6 40/1/6 17/13/6
f 35/5/2 34/4/2 13/6/2 36/7/2
f 51/13/5 50/1/5 34/4/5 35/5/5
f 17/11/6 40/10/6 50/1/6 51/13/6
f 41/1/7 37/2/7 10/3/7 14/4/7
f 31/8/3 10/9/3 37/10/3 38/11/3
f 38/12/4 42/13/4 15/5/4 31/14/4
f 42/13/5 41/1/5 14/4/5 15/5/5
f 38/11/6 37/10/6 41/1/6 42/13/6
f 39/1/7 41/2/7 14/3/7 22/4/7
f 42/12/4 52/13/4 40/5/4 15/14/4
f 52/13/5 39/1/5 22/4/5 40/5/5
f 42/11/6 41/10/6 39/1/6 52/13/6
f 43/1/7 39/2/7 22/3/7 20/4/7
f 52/12/4 48/13/4 50/5/4 40/14/4
f 48/13/5 43/1/5 20/4/5 50/5/5
f 52/11/6 39/10/6 43/1/6 48/13/6
f 45/8/3 31/9/3 38/10/3 44/11/3
f 44/12/4 47/13/4 33/5/4 45/14/4
f 47/13/5 42/1/5 15/4/5 33/5/5
f 44/11/6 38/10/6 42/1/6 47/13/6
f 47/12/4 46/13/4 17/5/4 33/14/4
f 46/13/5 52/1/5 40/4/5 17/5/5
f 47/11/6 42/10/6 52/1/6 46/13/6
f 46/12/4 49/13/4 51/5/4 17/14/4
f 49/13/5 48/1/5 50/4/5 51/5/5
f 46/11/6 52/10/6 48/1/6 49/13/6
f 57/1/7 59/2/7 60/3/7 58/4/7
f 56/5/2 58/4/2 60/6/2 53/7/2
f 53/8/3 60/9/3 59/10/3 54/11/3
f 55/13/5 57/1/5 58/4/5 56/5/5
f 54/11/6 59/10/6 57/1/6 55/13/6
f 56/5/4 53/7/4 54/11/4 55/13/4
