# Blender 4.5.1 LTS
# www.blender.org
mtllib Picaxe.mtl
o Cube
v -0.279170 -3.101662 0.279170
v -0.279170 3.432490 0.279170
v -0.279170 -3.101662 -0.279170
v -0.279170 3.432490 -0.279170
v 0.279170 -3.101662 0.279170
v 0.279170 3.432490 0.279170
v 0.279170 -3.101662 -0.279170
v 0.279170 3.432490 -0.279170
v -0.457614 2.377184 0.296956
v -0.457614 2.971095 0.296956
v -0.457614 2.377184 -0.296956
v -0.457614 2.971095 -0.296956
v 0.457614 2.377184 0.296956
v 0.457614 2.971095 0.296956
v 0.457614 2.377184 -0.296956
v 0.457614 2.971095 -0.296956
v -0.457614 2.216525 -0.457614
v -0.457614 2.216525 0.457614
v -0.457614 3.131754 0.457614
v -0.457614 3.131754 -0.457614
v 0.457614 3.131754 -0.457614
v 0.457614 2.216525 -0.457614
v 0.457614 2.216525 0.457614
v 0.457614 3.131754 0.457614
v -2.084476 1.992253 -0.296956
v -2.084476 1.992253 0.296956
v -2.425403 2.586164 0.296956
v -2.425403 2.586164 -0.296956
v 2.425403 2.586164 -0.296956
v 2.084476 1.992253 -0.296956
v 2.084476 1.992253 0.296956
v 2.425403 2.586164 0.296956
vn -1.0000 -0.0000 -0.0000
vn -0.0000 -0.0000 -1.0000
vn 1.0000 -0.0000 -0.0000
vn -0.0000 -0.0000 1.0000
vn -0.0000 -1.0000 -0.0000
vn -0.0000 1.0000 -0.0000
vn -0.8673 -0.4978 -0.0000
vn 0.8673 -0.4978 -0.0000
vn 0.1920 0.9814 -0.0000
vn -0.1920 0.9814 -0.0000
vn 0.2303 -0.9731 -0.0000
vn -0.2303 -0.9731 -0.0000
vt 0.375000 0.000000
vt 0.625000 0.000000
vt 0.625000 0.250000
vt 0.375000 0.250000
vt 0.625000 0.500000
vt 0.375000 0.500000
vt 0.625000 0.750000
vt 0.375000 0.750000
vt 0.625000 1.000000
vt 0.375000 1.000000
vt 0.125000 0.500000
vt 0.125000 0.750000
vt 0.875000 0.500000
vt 0.875000 0.750000
vt 0.418885 0.043885
vt 0.581115 0.043885
vt 0.581115 0.206115
vt 0.418885 0.206115
vt 0.581115 0.543885
vt 0.418885 0.543885
vt 0.418885 0.706115
vt 0.581115 0.706115
s 0
f 1/1/1 2/2/1 4/3/1 3/4/1
f 3/4/2 4/3/2 8/5/2 7/6/2
f 7/6/3 8/5/3 6/7/3 5/8/3
f 5/8/4 6/7/4 2/9/4 1/10/4
f 3/11/5 7/6/5 5/8/5 1/12/5
f 8/5/6 4/13/6 2/14/6 6/7/6
f 9/15/4 10/16/4 27/16/4 26/15/4
f 17/4/2 20/3/2 21/5/2 22/6/2
f 12/17/2 11/18/2 25/18/2 28/17/2
f 23/8/4 24/7/4 19/9/4 18/10/4
f 17/11/5 22/6/5 23/8/5 18/12/5
f 21/5/6 20/13/6 19/14/6 24/7/6
f 9/15/1 11/18/1 17/4/1 18/1/1
f 10/16/1 9/15/1 18/1/1 19/2/1
f 12/17/1 10/16/1 19/2/1 20/3/1
f 11/18/1 12/17/1 20/3/1 17/4/1
f 16/19/3 15/20/3 22/6/3 21/5/3
f 15/20/3 13/21/3 23/8/3 22/6/3
f 14/22/3 16/19/3 21/5/3 24/7/3
f 13/21/3 14/22/3 24/7/3 23/8/3
f 26/15/7 27/16/7 28/17/7 25/18/7
f 30/20/8 29/19/8 32/22/8 31/21/8
f 16/19/9 14/22/9 32/22/9 29/19/9
f 15/20/2 16/19/2 29/19/2 30/20/2
f 10/16/10 12/17/10 28/17/10 27/16/10
f 11/18/11 9/15/11 26/15/11 25/18/11
f 14/22/4 13/21/4 31/21/4 32/22/4
f 13/21/12 15/20/12 30/20/12 31/21/12
