# Blender 4.5.1 LTS
# www.blender.org
o Cube
v -0.327584 -1.000000 1.991969
v -0.327584 1.000000 1.991969
v -0.327584 -1.000000 -1.991969
v -0.327584 1.000000 -1.991969
v 0.327584 -0.738413 1.730382
v 0.327584 0.738413 1.730382
v 0.327584 -0.738413 -1.730382
v 0.327584 0.738413 -1.730382
v 0.327584 1.000000 -1.991969
v 0.327584 -1.000000 -1.991969
v 0.327584 -1.000000 1.991969
v 0.327584 1.000000 1.991969
v -0.001310 0.738413 -1.730382
v -0.001310 -0.738413 -1.730382
v -0.001310 -0.738413 1.730382
v -0.001310 0.738413 1.730382
v -0.335652 -1.568394 -2.256830
v -0.335652 3.905196 -2.256830
v -0.335652 -1.568394 -2.928135
v -0.335652 3.905196 -2.928135
v 0.335652 -1.568394 -2.256830
v 0.335652 3.905196 -2.256830
v 0.335652 -1.568394 -2.928135
v 0.335652 3.905196 -2.928135
v -0.335652 -2.185415 -2.928135
v -0.335652 -2.185415 -2.256830
v 0.335652 -2.185415 -2.928135
v 0.335652 -2.185415 -2.256830
v -0.335652 -1.568394 0.954652
v 0.335652 -1.568394 0.954652
v -0.335652 -2.185415 0.954652
v 0.335652 -2.185415 0.954652
vn -0.6255 0.7802 -0.0000
vn -0.0000 -0.0000 -1.0000
vn -0.0000 -1.0000 -0.0000
vn -0.0000 -0.0000 1.0000
vn -0.0000 1.0000 -0.0000
vn 1.0000 -0.0000 -0.0000
vn -1.0000 -0.0000 -0.0000
vn -0.6255 -0.0000 -0.7802
vn -0.6255 -0.7802 -0.0000
vn -0.6255 -0.0000 0.7802
vt 0.125000 0.500000
vt 0.125000 0.750000
vt 0.407698 0.733585
vt 0.407698 0.516415
vt 0.375000 0.250000
vt 0.625000 0.250000
vt 0.625000 0.500000
vt 0.375000 0.500000
vt 0.592302 0.516415
vt 0.592302 0.733585
vt 0.375000 0.750000
vt 0.625000 0.750000
vt 0.625000 1.000000
vt 0.375000 1.000000
vt 0.875000 0.500000
vt 0.875000 0.750000
vt 0.375000 0.000000
vt 0.625000 0.000000
s 0
f 3/1/1 1/2/1 15/3/1 14/4/1
f 3/5/2 4/6/2 9/7/2 10/8/2
f 8/9/3 6/10/3 16/10/3 13/9/3
f 11/11/4 12/12/4 2/13/4 1/14/4
f 3/1/3 10/8/3 11/11/3 1/2/3
f 9/7/5 4/15/5 2/16/5 12/12/5
f 8/9/6 7/4/6 10/8/6 9/7/6
f 7/4/6 5/3/6 11/11/6 10/8/6
f 6/10/6 8/9/6 9/7/6 12/12/6
f 5/3/6 6/10/6 12/12/6 11/11/6
f 7/4/4 8/9/4 13/9/4 14/4/4
f 6/10/2 5/3/2 15/3/2 16/10/2
f 5/3/5 7/4/5 14/4/5 15/3/5
f 17/17/7 18/18/7 20/6/7 19/5/7
f 19/5/2 20/6/2 24/7/2 23/8/2
f 23/8/6 24/7/6 22/12/6 21/11/6
f 21/11/4 22/12/4 18/13/4 17/14/4
f 21/11/5 17/14/5 29/14/5 30/11/5
f 24/7/5 20/15/5 18/16/5 22/12/5
f 25/1/3 27/8/3 28/11/3 26/2/3
f 19/5/2 23/8/2 27/8/2 25/5/2
f 17/17/7 19/5/7 25/5/7 26/17/7
f 23/8/6 21/11/6 28/11/6 27/8/6
f 30/11/4 29/14/4 31/14/4 32/11/4
f 28/11/6 21/11/6 30/11/6 32/11/6
f 26/2/3 28/11/3 32/11/3 31/2/3
f 17/17/7 26/17/7 31/17/7 29/17/7
f 1/2/8 2/13/8 16/10/8 15/3/8
f 2/13/9 4/15/9 13/9/9 16/10/9
f 3/1/10 14/4/10 13/9/10 4/15/10
